<?xml version="1.0" encoding="utf-8"?>
<!-- Generator: Adobe Illustrator 16.0.0, SVG Export Plug-In . SVG Version: 6.00 Build 0)  -->
<!DOCTYPE svg PUBLIC "-//W3C//DTD SVG 1.1//EN" "http://www.w3.org/Graphics/SVG/1.1/DTD/svg11.dtd">
<svg version="1.1" id="Layer_1" xmlns="http://www.w3.org/2000/svg" xmlns:xlink="http://www.w3.org/1999/xlink" x="0px" y="0px"
	 width="160px" height="37px" viewBox="0 0 160 37" enable-background="new 0 0 160 37" xml:space="preserve">
<g>
	<polygon fill="#AEB7B4" points="44.985,12.197 47.451,13.278 47.451,28.655 56.184,28.655 57.265,30.733 44.985,30.733 	"/>
	<path fill="#AEB7B4" d="M70.504,26.476c-0.598,2.959-2.727,4.568-5.737,4.568c-4.284,0-6.309-2.959-6.438-7.061
		c0-4.023,2.648-6.983,6.309-6.983c4.751,0,6.204,4.438,6.074,7.685H60.665c-0.077,2.336,1.245,4.414,4.179,4.414
		c1.818,0,3.09-0.885,3.479-2.623H70.504z M68.375,22.737c-0.104-2.104-1.687-3.791-3.869-3.791c-2.309,0-3.686,1.74-3.841,3.791
		H68.375z"/>
	<path fill="#AEB7B4" d="M84.885,30.681c-0.389,0.234-0.883,0.363-1.584,0.363c-1.143,0-1.869-0.621-1.869-2.076
		c-1.22,1.428-2.855,2.076-4.725,2.076c-2.441,0-4.439-1.09-4.439-3.764c0-3.037,2.258-3.688,4.543-4.127
		c2.441-0.469,4.518-0.313,4.518-1.975c0-1.92-1.584-2.232-2.986-2.232c-1.869,0-3.244,0.572-3.348,2.545h-2.207
		C72.916,18.167,75.486,17,78.473,17c2.414,0,5.035,0.544,5.035,3.687v6.904c0,1.039,0,1.508,0.701,1.508
		c0.182,0,0.391-0.027,0.676-0.131V30.681z M81.303,23.802c-0.857,0.623-2.518,0.648-3.999,0.908c-1.454,0.26-2.7,0.779-2.7,2.416
		c0,1.453,1.246,1.973,2.596,1.973c2.908,0,4.104-1.818,4.104-3.039V23.802z"/>
	<path fill="#AEB7B4" d="M98.928,30.733h-2.205v-1.818H96.67c-0.727,1.48-2.441,2.129-4.285,2.129c-4.127,0-6.178-3.27-6.178-7.061
		S88.232,17,92.334,17c1.377,0,3.35,0.519,4.336,2.103h0.053v-5.824l2.205-1.081V30.733z M92.697,29.099
		c2.961,0,4.104-2.545,4.104-5.064c0-2.646-1.195-5.088-4.232-5.088c-3.014,0-4.023,2.57-4.023,5.191
		C88.545,26.657,89.842,29.099,92.697,29.099"/>
	<polygon fill="#21AB88" points="102.324,12.197 114.5,12.197 113.42,14.272 104.791,14.272 104.791,20.167 113.307,20.167 
		112.586,22.243 104.791,22.243 104.791,30.733 102.324,30.733 	"/>
	<path fill="#21AB88" d="M128.311,26.476c-0.598,2.959-2.727,4.568-5.738,4.568c-4.283,0-6.307-2.959-6.438-7.061
		c0-4.023,2.648-6.983,6.309-6.983c4.752,0,6.205,4.438,6.074,7.685h-10.047c-0.078,2.336,1.246,4.414,4.18,4.414
		c1.818,0,3.09-0.885,3.479-2.623H128.311z M126.18,22.737c-0.104-2.104-1.686-3.791-3.867-3.791c-2.311,0-3.686,1.74-3.842,3.791
		H126.18z"/>
	<path fill="#21AB88" d="M130.723,18.032l2.076-0.721v2.83h0.053c1.064-2.156,2.545-3.221,4.934-3.142v2.337
		c-3.557,0-4.855,2.023-4.855,5.424v5.973h-2.207V18.032z"/>
	<path fill="#21AB88" d="M139.367,18.032l2.078-0.721v2.83h0.051c1.064-2.156,2.543-3.221,4.932-3.142v2.337
		c-3.557,0-4.854,2.023-4.854,5.424v5.973h-2.207V18.032z"/>
	<path fill="#21AB88" d="M153.359,32.524c-1.014,2.621-1.92,3.582-3.895,3.582c-0.52,0-1.039-0.051-1.531-0.234l1.082-2.023
		c0.414,0.131-0.225,0.311,0.215,0.311c0.91,0,1.404-0.441,1.818-1.219l0.908-2.285l-5.322-13.345h2.492l3.922,10.981h0.051
		l3.764-10.981h2.338L153.359,32.524z"/>
	<path fill="#21AB88" d="M18.93,0.37C8.916,0.37,0.799,8.487,0.799,18.501c0,10.012,8.117,18.129,18.131,18.129
		c10.012,0,18.129-8.117,18.129-18.129C37.059,8.487,28.941,0.37,18.93,0.37 M6.025,23.646L19.467,4.135l1.475,2.156L10.563,21.376
		h3.687l-1.418,2.27H6.025z M30.016,29.259H8.295l-1.871-2.438l7.372-0.115L24.23,11.111l4.537,6.465l-1.53,2.099l-3.12-4.581
		l-4.139,6.226l4.535,0.057v2.27h-6.066l-2.155,3.061h15.539L30.016,29.259z"/>
</g>
</svg>
